<?xml version="1.0" standalone="no"?>
<!DOCTYPE svg PUBLIC "-//W3C//DTD SVG 20010904//EN"
 "http://www.w3.org/TR/2001/REC-SVG-20010904/DTD/svg10.dtd">
<svg version="1.0" xmlns="http://www.w3.org/2000/svg"
 width="256.000000pt" height="256.000000pt" viewBox="0 0 256.000000 256.000000"
 preserveAspectRatio="xMidYMid meet">
<metadata>
Created by potrace 1.14, written by Peter Selinger 2001-2017
</metadata>
<g transform="translate(0.000000,256.000000) scale(0.100000,-0.100000)"
fill="#000000" stroke="none">
<path d="M1149 2516 c-2 -2 -29 -7 -59 -11 -70 -8 -186 -40 -276 -75 -303
-121 -563 -381 -684 -684 -63 -158 -81 -255 -85 -436 -3 -142 0 -181 20 -275
51 -249 161 -453 339 -631 180 -179 379 -286 636 -341 106 -22 361 -25 465 -4
144 28 333 103 440 174 77 52 91 62 157 120 213 185 350 437 403 737 16 89 13
327 -4 415 -63 315 -233 587 -481 769 -160 118 -317 186 -535 232 -36 7 -329
16 -336 10z"/>
</g>
</svg>
